<svg width="350" height="275" viewBox="100 100 350 275" xmlns="http://www.w3.org/2000/svg">
<defs>
<clipPath id="clip">
<rect x="100" y="100" width="350" height="275" />
</clipPath>
</defs>
<polygon points="150,150 250,100 325,125 375,225 450,250 275,375 100,300 " stroke="black" fill="none" />
<rect x="100" y="100" width="350" height="275" stroke="black" fill="none" />
<circle cx="275" cy="237" r="1" stroke="blue" fill="blue" />
<circle cx="275" cy="237" r="25" stroke="blue" fill="none" clip-path="url(#clip)" />
<circle cx="318" cy="222" r="1" stroke="blue" fill="blue" />
<circle cx="318" cy="222" r="25" stroke="blue" fill="none" clip-path="url(#clip)" />
<circle cx="314" cy="259" r="1" stroke="blue" fill="blue" />
<circle cx="314" cy="259" r="25" stroke="blue" fill="none" clip-path="url(#clip)" />
<circle cx="241" cy="209" r="1" stroke="blue" fill="blue" />
<circle cx="241" cy="209" r="25" stroke="blue" fill="none" clip-path="url(#clip)" />
<circle cx="276" cy="270" r="1" stroke="blue" fill="blue" />
<circle cx="276" cy="270" r="25" stroke="blue" fill="none" clip-path="url(#clip)" />
<circle cx="247" cy="262" r="1" stroke="blue" fill="blue" />
<circle cx="247" cy="262" r="25" stroke="blue" fill="none" clip-path="url(#clip)" />
<circle cx="266" cy="198" r="1" stroke="blue" fill="blue" />
<circle cx="266" cy="198" r="25" stroke="blue" fill="none" clip-path="url(#clip)" />
<circle cx="233" cy="233" r="1" stroke="blue" fill="blue" />
<circle cx="233" cy="233" r="25" stroke="blue" fill="none" clip-path="url(#clip)" />
<circle cx="294" cy="210" r="1" stroke="blue" fill="blue" />
<circle cx="294" cy="210" r="25" stroke="blue" fill="none" clip-path="url(#clip)" />
<circle cx="203" cy="201" r="1" stroke="blue" fill="blue" />
<circle cx="203" cy="201" r="25" stroke="blue" fill="none" clip-path="url(#clip)" />
</svg>
