<svg width="350" height="275" viewBox="100 100 350 275" xmlns="http://www.w3.org/2000/svg">
<defs>
<clipPath id="clip">
<rect x="100" y="100" width="350" height="275" />
</clipPath>
</defs>
<polygon points="150,150 250,100 325,125 375,225 450,250 275,375 100,300 " stroke="black" fill="none" />
<rect x="100" y="100" width="350" height="275" stroke="black" fill="none" />
<circle cx="226" cy="156" r="1" stroke="green" fill="green" />
<circle cx="226" cy="156" r="25" stroke="green" fill="none" clip-path="url(#clip)" />
<circle cx="291" cy="141" r="1" stroke="green" fill="green" />
<circle cx="291" cy="141" r="25" stroke="green" fill="none" clip-path="url(#clip)" />
<circle cx="317" cy="202" r="1" stroke="green" fill="green" />
<circle cx="317" cy="202" r="25" stroke="green" fill="none" clip-path="url(#clip)" />
<circle cx="167" cy="189" r="1" stroke="green" fill="green" />
<circle cx="167" cy="189" r="25" stroke="green" fill="none" clip-path="url(#clip)" />
<circle cx="380" cy="254" r="1" stroke="green" fill="green" />
<circle cx="380" cy="254" r="25" stroke="green" fill="none" clip-path="url(#clip)" />
<circle cx="212" cy="247" r="1" stroke="green" fill="green" />
<circle cx="212" cy="247" r="25" stroke="green" fill="none" clip-path="url(#clip)" />
<circle cx="153" cy="278" r="1" stroke="green" fill="green" />
<circle cx="153" cy="278" r="25" stroke="green" fill="none" clip-path="url(#clip)" />
<circle cx="326" cy="304" r="1" stroke="green" fill="green" />
<circle cx="326" cy="304" r="25" stroke="green" fill="none" clip-path="url(#clip)" />
<circle cx="273" cy="265" r="1" stroke="green" fill="green" />
<circle cx="273" cy="265" r="25" stroke="green" fill="none" clip-path="url(#clip)" />
<circle cx="248" cy="326" r="1" stroke="green" fill="green" />
<circle cx="248" cy="326" r="25" stroke="green" fill="none" clip-path="url(#clip)" />
</svg>
